#!OML:ASF H:\BreakDance\Project 1\Capture day 1\Session 1\Male.ASF
:FULLY-SPECIFIED
:DEGREES
436
root 21.9276 7.8656 -12.2572 -152.958 175.188 -71.2623
lowerback -11.1032 -9.48866 3.40695
upperback -7.00947 -12.3265 11.2272
thorax 0.531761 -5.94257 8.44881
lowerneck -13.8658 -3.30579 -8.23682
upperneck 15.5981 -1.9218 -5.48425
head 7.15414 -1.94233 -0.65135
rclavicle 6.20208e-014 -4.45278e-014
rhumerus -12.6084 -46.7592 -81.3525
rradius 118.834
rwrist -8.84771
rhand -59.1118 475.266
rfingers 7.12502
rthumb -31.3059 142.608
lclavicle 6.20208e-014 -4.45278e-014
lhumerus -56.9924 5.95222 -9.40793
lradius 20.8193
lwrist 11.6279
lhand -45.5891 -398.206
lfingers 7.12502
lthumb -18.3504 -9.05178
rfemur -42.7183 -2.41403 19.3512
rtibia 43.3013
rfoot 20.366 19.9687
rtoes 6.24723
lfemur 29.1285 6.7163 -5.19373
ltibia 34.1196
lfoot 4.54686 25.2192
ltoes 35.3304
437
root 21.9299 7.89973 -12.2112 -152.671 175.554 -71.4419
lowerback -10.8366 -9.19466 3.00577
upperback -6.84619 -11.9386 10.8652
thorax 0.517924 -5.757 8.35477
lowerneck -13.8383 -2.96815 -8.41908
upperneck 16.0246 -1.33959 -5.72145
head 7.28772 -1.70966 -0.644153
rclavicle 4.77083e-015 4.13472e-014
rhumerus -13.2927 -48.0109 -80.5926
rradius 118.545
rwrist -9.93763
rhand -59.0285 475.224
rfingers 7.12502
rthumb -31.2265 142.582
lclavicle 4.77083e-015 4.13472e-014
lhumerus -58.408 5.39136 -9.4845
lradius 20.9211
lwrist 13.008
lhand -45.88 -397.513
lfingers 7.12502
lthumb -18.6303 -8.3856
rfemur -43.7192 -3.9612 20.9871
rtibia 41.5013
rfoot 20.6251 19.2838
rtoes 8.78778
lfemur 29.178 6.66801 -5.01672
ltibia 33.944
lfoot 5.0447 25.3417
ltoes 35.4432
438
root 21.9287 7.92859 -12.1691 -152.375 175.792 -71.608
lowerback -10.5706 -8.89154 2.59036
upperback -6.67174 -11.5376 10.5162
thorax 0.518946 -5.56381 8.28311
lowerneck -13.6601 -2.57389 -8.92405
upperneck 16.5251 -0.719757 -5.3654
head 7.42196 -1.4234 -0.384337
rclavicle -8.26944e-014 -6.36111e-015
rhumerus -14.277 -49.5523 -79.3589
rradius 118.504
rwrist -11.2037
rhand -58.5768 475.176
rfingers 7.12502
rthumb -30.7959 142.616
lclavicle -8.26944e-014 -6.36111e-015
lhumerus -59.5362 5.10931 -9.44454
lradius 21.0491
lwrist 14.4483
lhand -46.1728 -396.982
lfingers 7.12502
lthumb -18.9118 -7.88137
rfemur -44.7764 -5.40303 22.6464
rtibia 39.9438
rfoot 20.6873 18.231
rtoes 11.6169
lfemur 29.0047 6.72409 -4.65129
ltibia 34.137
lfoot 6.01913 25.1015
ltoes 35.0697
439
root 21.9238 7.95237 -12.1305 -152.079 175.897 -71.7645
lowerback -10.302 -8.59012 2.1817
upperback -6.4887 -11.1382 10.1798
thorax 0.52745 -5.37062 8.22078
lowerneck -13.3108 -2.11944 -9.6431
upperneck 17.0335 -0.0833958 -4.51688
head 7.52093 -1.09398 0.0773426
rclavicle 4.6118e-014 1.27222e-014
rhumerus -15.6311 -51.2832 -77.6666
rradius 118.646
rwrist -12.6681
rhand -57.8714 475.261
rfingers 7.12502
rthumb -30.1232 142.826
lclavicle 4.6118e-014 1.27222e-014
lhumerus -60.3885 5.05826 -9.30664
lradius 21.1974
lwrist 15.9308
lhand -46.4794 -396.594
lfingers 7.12502
lthumb -19.2067 -7.5222
rfemur -45.8578 -6.71102 24.2971
rtibia 38.5833
rfoot 20.3933 17.1649
rtoes 13.9721
lfemur 28.6223 6.86675 -4.10383
ltibia 34.6694
lfoot 7.32467 24.4386
ltoes 34.0249
440
root 21.9156 7.97202 -12.0954 -151.795 175.86 -71.9002
lowerback -10.0165 -8.305 1.81369
upperback -6.31075 -10.7598 9.83047
thorax 0.512326 -5.18759 8.12231
lowerneck -12.7912 -1.62473 -10.4016
upperneck 17.5101 0.520899 -3.35361
head 7.565 -0.750037 0.6484
rclavicle -2.22639e-014 -5.40694e-014
rhumerus -17.3863 -53.0647 -75.5452
rradius 118.923
rwrist -14.3232
rhand -57.0593 475.606
rfingers 7.12502
rthumb -29.3481 143.31
lclavicle -2.22639e-014 -5.40694e-014
lhumerus -60.9629 5.18296 -9.13701
lradius 21.3511
lwrist 17.3686
lhand -46.7976 -396.305
lfingers 7.12502
lthumb -19.5127 -7.26424
rfemur -46.9379 -7.89829 25.9069
rtibia 37.3885
rfoot 19.7726 16.269
rtoes 15.7362
lfemur 28.0618 7.0686 -3.39252
ltibia 35.483
lfoot 8.6601 23.3393
ltoes 32.2419
